# xmcd CD database file
#
# Track frame offsets:
#	150
#	26683
#	50463
#	70453
#	91692
#	106685
#	126711
#	154934
#	176058
#	199391
#	221194
#	239965
#	264939
#	281080
#
# Disc length: 4076 seconds
#
# Revision: 0
# Processed by: cddbd v1.5.2PL0 Copyright (c) Steve Scherf et al.
# Submitted via: cdripper 1,0,33,916
#
DISCID=dd0fea0e
DTITLE=Keith Urban - Love, Pain and the Whole Crazy Thing
DYEAR=2006
DGENRE=Country
TTITLE0=Once In A Lifetime
TTITLE1=Shine
TTITLE2=I Told You So
TTITLE3=I Can't Stop Loving You
TTITLE4=Won't Let You Down
TTITLE5=Faster Car
TTITLE6=Stupid Boy
TTITLE7=Used To The Pain
TTITLE8=Raise The Barn (Featuring Ronnie Dunn)
TTITLE9=God Made Woman
TTITLE10=Tu Compania
TTITLE11=Everybody
TTITLE12=Got It Right This Time
TTITLE13=Slow Turning (iTunes Exclusive)
EXTD=YEAR: 2006
EXTT0=
EXTT1=
EXTT2=
EXTT3=
EXTT4=
EXTT5=
EXTT6=
EXTT7=
EXTT8=
EXTT9=
EXTT10=
EXTT11=
EXTT12=
EXTT13=
PLAYORDER=
